<svg
xmlns="http://www.w3.org/2000/svg"
id="レイヤー_1"
data-name="レイヤー 1"
width="48"
height="48"
viewBox="0 0 48 48"
>
<defs>
  <style>
    .cls-1 {
      fill: #C12F49;
    }
    .cls-2 {
      fill: #c1e1d2;
    }
    .cls-3 {
      fill: #2b2727;
    }
  </style>
</defs>
<title>solanum_lycopersicum</title>
<circle class="cls-1" cx="24" cy="24" r="13.5" />
<polygon
  class="cls-2"
  points="25.75 22.09 29.22 21.13 33.43 24.8 32.23 19.67 36.25 18.11 31.23 16.77 29.74 11.6 27.75 15.56 22.97 14.34 26.64 18.51 25.75 22.09"
/>
<path
  class="cls-3"
  d="M33.43,25.8a1,1,0,0,1-.66-.25L29,22.24,26,23.05a1,1,0,0,1-1-.24,1,1,0,0,1-.27-1l.77-3.07L22.22,15a1,1,0,0,1,1-1.63l4,1,1.62-3.24a1,1,0,0,1,1.86.17L32,16l4.47,1.19a1,1,0,0,1,.11,1.9L33.4,20.29l1,4.28a1,1,0,0,1-.46,1.08A1,1,0,0,1,33.43,25.8Zm-4.21-5.67a1,1,0,0,1,.66.25L31.75,22l-.49-2.11a1,1,0,0,1,.61-1.16L33,18.29,31,17.74a1,1,0,0,1-.71-.69l-.78-2.72L28.65,16a1,1,0,0,1-1.14.52l-1.65-.42,1.53,1.74a1,1,0,0,1,.22.9l-.47,1.92,1.82-.5A1.09,1.09,0,0,1,29.22,20.13Z"
/>
<path
  class="cls-3"
  d="M29.94,18.9a1,1,0,0,1-.7-1.71L33,13.45a1,1,0,1,1,1.41,1.41l-3.74,3.75A1,1,0,0,1,29.94,18.9Z"
/>
<path
  class="cls-3"
  d="M24,38.5A14.5,14.5,0,1,1,27.34,9.9a1,1,0,0,1-.46,1.95,12.5,12.5,0,1,0,9.27,9.27,1,1,0,0,1,.74-1.2,1,1,0,0,1,1.21.74A14.5,14.5,0,0,1,24,38.5Z"
/>
</svg>